# xmcd
#
# Track frame offsets:
#	150
#	12657
#	27940
#	46667
#	60057
#	78082
#	90590
#	103975
#	119717
#	134455
#	152635
#	170050
#	187815
#	196270
#
# Disc length: 2854 seconds
#
# Revision: 80782378
# Processed by: cddbd v1.5.2PL0 Copyright (c) Steve Scherf et al.
# Submitted via: EZCDAudioConverter 1.0.8.1
#
DISCID=ae0b240e
DTITLE=Cypress Hill - Los Grandes Exitos en Espanol
DYEAR=1999
DGENRE=Hip-Hop/Rap
TTITLE0=Cypress Hill - Yo Quiero Fumar (I Want to Get High)
TTITLE1=Cypress Hill - Loco en el Coco (Insane in the Brain)
TTITLE2=Cypress Hill - No Entiendes la Onda (How I Could Just Kill a Man)
TTITLE3=Cypress Hill - Dr. Dedoverde (Dr. Greenthumb)
TTITLE4=Cypress Hill - Latino Lingo (Latin Lingo)
TTITLE5=Cypress Hill - Puercos (Pigs)
TTITLE6=Cypress Hill - Marijuano Locos (Stoned Raiders)
TTITLE7=Cypress Hill - Tú No Ajaunta (Checkmate)
TTITLE8=Cypress Hill - Ilusiones (Illusions)
TTITLE9=Cypress Hill - Muévete (Make a Move)
TTITLE10=Cypress Hill - No Pierdo Nada (Nothin' to Lose)
TTITLE11=Cypress Hill - Tequila (Tequila Sunrise)
TTITLE12=Cypress Hill - Tres Equis
TTITLE13=Fermin IV Caballero/Cypress Hill - Siempre Peligroso
EXTD=
EXTT0=
EXTT1=
EXTT2=
EXTT3=
EXTT4=
EXTT5=
EXTT6=
EXTT7=
EXTT8=
EXTT9=
EXTT10=
EXTT11=
EXTT12=
EXTT13=
PLAYORDER=
